<?xml version="1.0" encoding="UTF-8"?>
<svg id="Layer_1" xmlns="http://www.w3.org/2000/svg" width="20mm" height="20mm" version="1.1" viewBox="0 0 56.7 56.7">
  <!-- Generator: Adobe Illustrator 29.1.0, SVG Export Plug-In . SVG Version: 2.1.0 Build 142)  -->
  <defs>
    <style>
      .st0 {
        fill: #cf2e29;
      }
    </style>
  </defs>
  <path class="st0" d="M28.6,44.9c.8,0,1.4-.3,1.9-.8.5-.5.8-1.2.8-1.9s-.3-1.4-.8-1.9c-.5-.5-1.2-.8-1.9-.8s-1.4.3-1.9.8-.8,1.2-.8,1.9.3,1.4.8,1.9c.5.5,1.2.8,1.9.8ZM26.1,34.5h4.2c0-1.2.2-2.4.5-3.4.3-1,1.3-2.2,2.9-3.5,1.5-1.2,2.5-2.4,3.1-3.6s.9-2.5.9-3.9c0-2.5-.8-4.5-2.4-6s-3.8-2.3-6.5-2.3-4.4.6-6.1,1.7-3.1,2.8-3.9,4.8l3.8,1.4c.5-1.3,1.3-2.4,2.3-3.1s2.3-1.1,3.7-1.1,2.9.4,3.9,1.3,1.5,2,1.5,3.4-.3,2-.9,2.9-1.5,1.9-2.7,2.9c-1.4,1.2-2.5,2.4-3.2,3.6s-1,2.8-1,4.8ZM28.3,56.7c-3.9,0-7.5-.7-11-2.2-3.4-1.5-6.5-3.5-9-6.1s-4.6-5.6-6.1-9-2.2-7.1-2.2-11,.7-7.6,2.2-11.1,3.5-6.4,6.1-9c2.6-2.6,5.6-4.6,9-6.1S24.5,0,28.3,0s7.6.7,11.1,2.2,6.4,3.5,9,6.1,4.6,5.6,6.1,9,2.2,7.1,2.2,11.1-.7,7.5-2.2,11-3.5,6.5-6.1,9-5.6,4.6-9,6.1c-3.4,1.5-7.1,2.2-11.1,2.2ZM28.3,52.4c6.7,0,12.4-2.4,17.1-7.1,4.7-4.7,7-10.4,7-17s-2.3-12.4-7-17.1c-4.7-4.7-10.4-7-17.1-7s-12.3,2.3-17,7c-4.7,4.7-7.1,10.4-7.1,17.1s2.4,12.3,7.1,17c4.7,4.7,10.4,7.1,17,7.1Z"/>
</svg>