<?xml version="1.0" encoding="UTF-8"?>
<svg id="Layer_1" data-name="Layer 1" xmlns="http://www.w3.org/2000/svg" width="35.28mm" height="35.28mm" viewBox="0 0 100 100">
  <defs>
    <style>
      .cls-1 {
        fill: #fff;
      }
    </style>
  </defs>
  <path class="cls-1" d="M50,100c-13.85,0-25.65-4.87-35.39-14.61C4.87,75.65,0,63.85,0,50S4.87,24.35,14.61,14.61C24.35,4.87,36.15,0,50,0c8.85,0,16.61,1.8,23.28,5.39s12.45,8.52,17.34,14.77V0h9.38v39.69h-39.69v-9.37h26.25c-3.96-6.25-9.01-11.3-15.16-15.16-6.15-3.85-13.28-5.78-21.41-5.78-11.35,0-20.96,3.93-28.83,11.8-7.86,7.86-11.8,17.47-11.8,28.83s3.93,20.96,11.8,28.83c7.86,7.86,17.47,11.8,28.83,11.8,8.65,0,16.56-2.47,23.75-7.42,7.19-4.95,12.19-11.48,15-19.61h9.69c-3.02,10.94-9.01,19.74-17.97,26.41-8.96,6.67-19.11,10-30.47,10Z"/>
</svg>