<?xml version="1.0" encoding="UTF-8"?>
<svg id="Layer_1" data-name="Layer 1" xmlns="http://www.w3.org/2000/svg" width="56.46mm" height="56.44mm" viewBox="0 0 160.04 160">
  <defs>
    <style>
      .cls-1 {
        fill: #fff;
      }
    </style>
  </defs>
  <path class="cls-1" d="M157.1,81.63c-30.79-8.5-36.71-14.42-45.21-45.21-.48-1.73-2.05-2.94-3.86-2.94s-3.38,1.19-3.86,2.94c-8.5,30.78-14.42,36.71-45.21,45.21-1.73.48-2.94,2.05-2.94,3.86s1.19,3.38,2.94,3.86c30.79,8.5,36.71,14.42,45.21,45.21.48,1.73,2.05,2.94,3.86,2.94s3.38-1.19,3.86-2.94c8.5-30.79,14.42-36.71,45.21-45.21,1.73-.48,2.94-2.05,2.94-3.86s-1.19-3.38-2.94-3.86Z"/>
  <path class="cls-1" d="M17.72,37.86c18.74,5.18,22.04,8.49,27.2,27.2.48,1.73,2.05,2.94,3.86,2.94s3.38-1.19,3.86-2.94c5.16-18.72,8.47-22.04,27.2-27.2,1.73-.48,2.94-2.05,2.94-3.86s-1.19-3.38-2.94-3.86c-18.74-5.18-22.04-8.49-27.2-27.2-.48-1.73-2.05-2.94-3.86-2.94s-3.38,1.19-3.86,2.94c-5.18,18.74-8.49,22.04-27.2,27.2-1.73.48-2.94,2.05-2.94,3.86s1.19,3.38,2.94,3.86Z"/>
  <path class="cls-1" d="M69.1,120.14c-19.89-5.49-23.71-9.31-29.22-29.2-.48-1.73-2.05-2.94-3.86-2.94s-3.38,1.19-3.86,2.94c-5.49,19.89-9.31,23.71-29.22,29.2-1.73.48-2.94,2.05-2.94,3.86s1.19,3.38,2.94,3.86c19.89,5.49,23.71,9.31,29.22,29.2.48,1.73,2.05,2.94,3.86,2.94s3.38-1.19,3.86-2.94c5.49-19.89,9.31-23.71,29.22-29.2,1.73-.48,2.94-2.05,2.94-3.86s-1.21-3.38-2.94-3.86Z"/>
</svg>